<?xml version="1.0" encoding="UTF-8" standalone="no"?>
<!-- Created with Inkscape (http://www.inkscape.org/) -->

<svg
   xmlns:dc="http://purl.org/dc/elements/1.1/"
   xmlns:cc="http://creativecommons.org/ns#"
   xmlns:rdf="http://www.w3.org/1999/02/22-rdf-syntax-ns#"
   xmlns:svg="http://www.w3.org/2000/svg"
   xmlns="http://www.w3.org/2000/svg"
   xmlns:sodipodi="http://sodipodi.sourceforge.net/DTD/sodipodi-0.dtd"
   xmlns:inkscape="http://www.inkscape.org/namespaces/inkscape"
   id="svg2"
   viewBox="0 0 1012.4 517.38"
   version="1.1"
   inkscape:version="0.48.4 r9939"
   width="100%"
   height="100%"
   sodipodi:docname="splash.svg">
  <sodipodi:namedview
     pagecolor="#ffffff"
     bordercolor="#666666"
     borderopacity="1"
     objecttolerance="10"
     gridtolerance="10"
     guidetolerance="10"
     inkscape:pageopacity="0"
     inkscape:pageshadow="2"
     inkscape:window-width="1247"
     inkscape:window-height="1388"
     id="namedview38"
     showgrid="false"
     inkscape:zoom="0.5768471"
     inkscape:cx="328.02337"
     inkscape:cy="345.07248"
     inkscape:window-x="65"
     inkscape:window-y="24"
     inkscape:window-maximized="0"
     inkscape:current-layer="svg2" />
  <defs
     id="defs4">
    <filter
       id="filter4072"
       color-interpolation-filters="sRGB">
      <feGaussianBlur
         id="feGaussianBlur4074"
         stdDeviation="4.4720681" />
    </filter>
  </defs>
  <metadata
     id="metadata7">
    <rdf:RDF>
      <cc:Work
         rdf:about="">
        <dc:format>image/svg+xml</dc:format>
        <dc:type
           rdf:resource="http://purl.org/dc/dcmitype/StillImage" />
        <dc:title></dc:title>
      </cc:Work>
    </rdf:RDF>
  </metadata>
  <rect
     style="fill:#e0e0e2;fill-opacity:1;fill-rule:nonzero;stroke:#000000;stroke-width:5;stroke-linecap:round;stroke-linejoin:round;stroke-miterlimit:4;stroke-dasharray:none"
     x="14.231878"
     y="14.232578"
     stroke-miterlimit="4"
     width="983.89001"
     height="488.91"
     id="rect3969" />
  <g
     style="stroke:#000000;stroke-width:1;stroke-miterlimit:4;stroke-dasharray:none"
     stroke-miterlimit="4"
     transform="matrix(0.42700798,0,0,0.42700798,291.296,441.3952)"
     id="layer1-03">
    <g
       style="stroke:#000000"
       transform="translate(-95.914267,-808.19512)"
       id="layer1-0">
      <g
         style="fill:#3366cc;stroke:#000000"
         transform="translate(-242.85708,-341.92353)"
         id="Layer_1">
        <g
           id="g2991">
          <path
             inkscape:connector-curvature="0"
             d="m 296.06,494.69 c -34.021,-4.717 -60.212,-33.92 -60.212,-69.238 0,-38.607 31.297,-69.905 69.906,-69.905 22.066,0 41.746,10.225 54.556,26.197 l -83.5,0.249 c 0,0 -10.91,1.85 -12.205,12.576 l 0.556,56.22 c 0,0 1.848,8.877 10.356,9.616 l 20.528,0.186 0.015,34.099 z"
             id="path2993" />
          <path
             inkscape:connector-curvature="0"
             d="m 374.65,413.54 c -1.61,-9.382 -5.095,-18.125 -10.048,-25.831 h -36.374 l -6.288,9.643 h -41.98 v 47.713 l 15.718,-0.185 0.372,-20.527 c 0,0 2.217,-10.356 12.019,-11.282 l 66.581,0.469 z"
             id="path2995" />
          <path
             inkscape:connector-curvature="0"
             d="m 311,445.06 v -16.183 l 36.83,-0.277 6.29,-10.276 h 21.185 c 0.239,2.346 0.361,4.726 0.361,7.132 0,7.071 -1.05,13.897 -3.003,20.33 L 311,445.06 z"
             id="path2997" />
          <path
             inkscape:connector-curvature="0"
             d="m 311,495.17 c 27.628,-2.049 50.785,-20.154 60.18,-45.021 l -30.09,0.366 -6.206,9.895 -23.884,0.184 v 34.576 z"
             id="path2999" />
        </g>
        <g
           style="font-size:148.2532959px;font-family:Helvetica"
           transform="translate(396.9209,474.5762)"
           font-size="148.25329590000001190px"
           id="text3001">
          <path
             inkscape:connector-curvature="0"
             d="m 95.475,0 0,-108.08 -13.788,0 0,46.7 -55.595,0 0,-46.7 -13.788,0 0,108.08 13.788,0 0,-49.22 55.595,0 0,49.22 13.788,0"
             id="path4090" />
          <path
             inkscape:connector-curvature="0"
             d="m 202.76,-108.08 -14.677,0 -29.947,91.472 -31.726,-91.472 -14.825,0 L 150.435,0 h 14.825 l 37.508,-108.08"
             id="path4092" />
          <path
             inkscape:connector-curvature="0"
             d="m 292.55,0 -37.953,-108.08 -17.79,0 L 198.257,0 h 14.677 l 11.416,-32.467 h 41.659 L 277.119,0 h 15.42 m -30.392,-44.031 -34.395,0 17.79,-49.22 16.604,49.22"
             id="path4094" />
          <path
             inkscape:connector-curvature="0"
             d="m 389.92,-39.435 -14.232,0 c -3.2616,20.459 -11.86,29.947 -30.095,29.947 -21.497,0 -35.136,-16.456 -35.136,-43.438 0,-27.723 13.046,-45.662 33.95,-45.662 16.901,0 25.796,7.5609 29.206,24.017 h 14.084 c -4.2993,-23.721 -17.939,-36.174 -41.659,-36.174 -32.764,0 -49.368,26.389 -49.368,57.967 0,31.578 17.049,55.447 48.775,55.447 26.389,0 41.214,-13.936 44.476,-42.104"
             id="path4096" />
          <path
             inkscape:connector-curvature="0"
             d="m 425.01,0 0,-15.418 -15.418,0 0,15.418 15.418,0"
             id="path4098" />
          <path
             inkscape:connector-curvature="0"
             d="m 466.42,0 0,-108.08 -13.788,0 0,108.08 13.788,0"
             id="path4100" />
          <path
             inkscape:connector-curvature="0"
             d="m 588.93,-52.333 c 0,-34.839 -20.607,-58.412 -52.333,-58.412 -30.985,0 -52.037,23.721 -52.037,57.522 0,33.802 21.052,55.891 52.185,55.891 31.726,0 52.185,-23.276 52.185,-55.002 m -13.788,-0.29651 c 0,26.093 -15.567,43.142 -38.398,43.142 -22.979,0 -38.398,-17.049 -38.398,-43.735 0,-26.686 15.418,-45.366 38.249,-45.366 23.424,0 38.546,18.68 38.546,45.959"
             id="path4102" />
        </g>
      </g>
    </g>
  </g>
  <g
     font-variant="normal"
     line-height="125%"
     font-stretch="normal"
     font-style="normal"
     font-size="236.48498535px"
     font-weight="normal"
     style="font-size:236.48498535px;font-style:normal;font-variant:normal;font-weight:normal;font-stretch:normal;line-height:125%;letter-spacing:0px;word-spacing:0px;fill:#000000;font-family:Monospace"
     id="text3017"
     transform="translate(139.49188,-46.15942)">
    <path
       inkscape:connector-curvature="0"
       d="m -7.1428,246.06 22.748,0 16.512,139.95 19.63,-92.608 24.364,0 19.861,92.839 16.512,-140.18 22.748,0 -25.75,172.4 -22.055,0 -23.441,-102.42 -23.325,102.42 -22.055,0 -25.75,-172.4"
       id="path4077" />
    <path
       inkscape:connector-curvature="0"
       d="m 216.18,353.45 -7.0437,0 c -12.394,6e-5 -21.747,2.194 -28.06,6.5818 -6.2355,4.311 -9.3532,10.777 -9.3532,19.399 -3e-5,7.7751 2.3479,13.818 7.0437,18.129 4.6958,4.3109 11.201,6.4664 19.515,6.4664 11.701,2e-5 20.9,-4.0415 27.598,-12.124 6.6972,-8.1599 10.084,-19.399 10.161,-33.718 v -4.7343 h -19.861 m 41.223,-8.7758 0,73.786 -21.362,0 0,-19.168 c -4.542,7.6981 -10.277,13.395 -17.205,17.09 -6.8514,3.6181 -15.204,5.4271 -25.057,5.4272 -13.164,-1e-5 -23.672,-3.6951 -31.524,-11.085 -7.8521,-7.4671 -11.778,-17.436 -11.778,-29.907 -1e-5,-14.395 4.8113,-25.327 14.434,-32.794 9.6995,-7.4671 23.902,-11.201 42.609,-11.201 h 28.521 v -3.3487 c -0.0771,-10.315 -2.6944,-17.782 -7.852,-22.401 -5.1578,-4.6957 -13.395,-7.0436 -24.711,-7.0437 -7.2363,1.1e-4 -14.549,1.0394 -21.94,3.1177 -7.3902,2.0786 -14.588,5.1193 -21.593,9.1222 v -21.247 c 7.852,-3.0021 15.358,-5.2346 22.517,-6.6973 7.2361,-1.5395 14.241,-2.3093 21.016,-2.3094 10.7,1.4e-4 19.822,1.5782 27.367,4.7343 7.621,3.1563 13.779,7.8906 18.475,14.203 2.9252,3.8492 5.0036,8.622 6.2354,14.318 1.2316,5.6197 1.8474,14.088 1.8475,25.404"
       id="path4079" />
    <path
       inkscape:connector-curvature="0"
       d="m 399.89,411.88 c -5.6967,3.3102 -11.586,5.7736 -17.667,7.3902 -6.0046,1.6936 -12.163,2.5404 -18.475,2.5404 -20.015,-1e-5 -35.681,-6.0045 -46.997,-18.014 -11.239,-12.009 -16.859,-28.637 -16.859,-49.884 -3e-5,-21.247 5.6196,-37.874 16.859,-49.884 11.316,-12.009 26.982,-18.013 46.997,-18.014 6.2354,1.4e-4 12.317,0.80843 18.244,2.4249 5.9274,1.6167 11.893,4.1186 17.898,7.5056 v 22.286 c -5.6197,-5.0036 -11.278,-8.6217 -16.974,-10.854 -5.6197,-2.2323 -12.009,-3.3486 -19.168,-3.3487 -13.318,1.1e-4 -23.556,4.311 -30.715,12.933 -7.1593,8.6219 -10.739,20.939 -10.739,36.951 -5e-5,15.935 3.5796,28.252 10.739,36.951 7.2361,8.6219 17.475,12.933 30.715,12.933 7.3901,2e-5 14.01,-1.1162 19.861,-3.3487 5.8504,-2.3094 11.278,-5.8505 16.281,-10.623 v 22.055"
       id="path4081" />
    <path
       inkscape:connector-curvature="0"
       d="m 541,338.32 0,80.137 -21.362,0 0,-80.137 c -1e-4,-11.624 -2.0401,-20.169 -6.12,-25.635 -4.0801,-5.4655 -10.469,-8.1983 -19.168,-8.1985 -9.9306,1.2e-4 -17.59,3.5412 -22.979,10.623 -5.3117,7.0054 -7.9676,17.09 -7.9675,30.253 v 73.093 h -21.247 v -129.33 h 21.247 v 19.399 c 3.772,-7.39 8.8912,-12.971 15.358,-16.743 6.4663,-3.8489 14.126,-5.7734 22.979,-5.7736 13.164,1.4e-4 22.979,4.3496 29.445,13.048 6.5432,8.622 9.8149,21.709 9.815,39.26"
       id="path4083" />
    <path
       inkscape:connector-curvature="0"
       d="m 690.3,348.48 0,10.392 -92.031,0 0,0.69283 c -3e-5,14.088 3.6566,24.98 10.97,32.678 7.3901,7.6981 17.782,11.547 31.177,11.547 6.7742,2e-5 13.856,-1.0777 21.247,-3.2332 7.39,-2.1554 15.281,-5.4271 23.672,-9.815 v 21.131 c -8.0831,3.3102 -15.897,5.7736 -23.441,7.3902 -7.4672,1.6936 -14.703,2.5404 -21.709,2.5404 -20.092,-10e-6 -35.796,-6.0045 -47.112,-18.014 -11.316,-12.086 -16.974,-28.714 -16.974,-49.884 -2e-5,-20.631 5.5426,-37.105 16.628,-49.422 11.0854,-12.317 25.865,-18.475 44.341,-18.475 16.474,1.4e-4 29.445,5.5812 38.914,16.743 9.5455,11.162 14.318,26.404 14.318,45.727 m -21.247,-6.2354 c -0.30803,-12.471 -3.2718,-21.939 -8.8913,-28.406 -5.5427,-6.5433 -13.549,-9.8149 -24.018,-9.815 -10.239,1.1e-4 -18.668,3.3873 -25.288,10.161 -6.6204,6.7744 -10.546,16.166 -11.778,28.175 l 69.976,-0.11547"
       id="path4085" />
    <path
       inkscape:connector-curvature="0"
       d="m 775.06,252.41 0,36.72 48.267,0 0,16.512 -48.267,0 0,70.206 c -7e-5,9.5456 1.809,16.204 5.4271,19.977 3.618,3.7721 9.9304,5.6581 18.937,5.6581 h 23.903 v 16.974 h -25.981 c -15.935,0 -27.174,-3.1947 -33.718,-9.5841 -6.5434,-6.3894 -9.8151,-17.398 -9.815,-33.025 v -70.206 h -34.526 V 289.13 h 34.526 v -36.72 h 21.247"
       id="path4087" />
  </g>
  <g
     font-style="normal"
     font-variant="normal"
     font-size="57.7458992px"
     line-height="125%"
     font-stretch="normal"
     transform="matrix(1.0013063,0,0,0.99869541,139.49188,-46.15942)"
     font-weight="normal"
     style="font-size:57.7458992px;font-style:normal;font-variant:normal;font-weight:normal;font-stretch:normal;line-height:125%;letter-spacing:0px;word-spacing:0px;fill:#000000;font-family:Monospace"
     id="text3017-7">
    <path
       inkscape:connector-curvature="0"
       d="m 447.21,154.72 0,15.649 -4.9062,0 0,-15.649 4.9062,0"
       id="path4105" />
    <path
       inkscape:connector-curvature="0"
       d="m 489.58,166.34 0,5.0753 c -1.485,-0.86466 -2.9794,-1.5132 -4.4832,-1.9455 -1.5038,-0.43232 -3.0358,-0.64849 -4.596,-0.64852 -2.3497,3e-5 -4.1073,0.38538 -5.2727,1.156 -1.1467,0.75193 -1.72,1.908 -1.72,3.4681 -2e-5,1.4098 0.43233,2.4625 1.297,3.158 0.86467,0.69552 3.017,1.3722 6.4569,2.0301 l 2.0865,0.39474 c 2.5752,0.48876 4.5208,1.4662 5.8366,2.9324 1.3346,1.4662 2.0019,3.3742 2.0019,5.7238 -3e-5,3.1204 -1.1091,5.5641 -3.3272,7.331 -2.2181,1.7482 -5.3009,2.6222 -9.2484,2.6222 -1.5602,0 -3.1956,-0.16918 -4.9062,-0.50753 -1.7106,-0.31956 -3.5621,-0.80829 -5.5547,-1.4662 v -5.3573 c 1.9361,0.99627 3.7877,1.7482 5.5547,2.2557 1.767,0.48874 3.4399,0.7331 5.0189,0.7331 2.2933,0 4.0696,-0.46053 5.3291,-1.3816 1.2594,-0.93987 1.8891,-2.2463 1.8892,-3.9193 -3e-5,-2.4061 -2.3027,-4.0696 -6.9081,-4.9907 l -0.22557,-0.0564 -1.9455,-0.39475 c -2.9888,-0.5827 -5.1693,-1.5602 -6.5415,-2.9324 -1.3722,-1.391 -2.0583,-3.2801 -2.0583,-5.6674 -1e-5,-3.0264 1.0244,-5.3573 3.0734,-6.9927 2.0489,-1.6542 4.9719,-2.4812 8.769,-2.4813 1.6918,4e-5 3.3177,0.15981 4.878,0.47934 1.5602,0.30079 3.0922,0.76133 4.596,1.3816"
       id="path4107" />
  </g>
  <rect
     style="fill:#ffee00;fill-rule:nonzero;stroke:#000000;stroke-width:3.25609994;stroke-linecap:round;stroke-linejoin:round;stroke-miterlimit:4;stroke-dasharray:none"
     x="71.476883"
     y="185.33058"
     stroke-miterlimit="4"
     width="207.46001"
     height="207.46001"
     id="rect3053" />
  <g
     font-style="normal"
     font-variant="normal"
     font-size="40px"
     line-height="125%"
     font-stretch="normal"
     transform="matrix(7.6469172,0,0,5.947166,269.19083,1025.3475)"
     font-weight="normal"
     style="font-size:40px;font-style:normal;font-variant:normal;font-weight:normal;font-stretch:normal;line-height:125%;letter-spacing:0px;word-spacing:0px;fill:#000000;font-family:Monospace"
     id="flowRoot3055">
    <path
       inkscape:connector-curvature="0"
       d="m -24.281,-138.35 3.8477,0 2.793,23.672 3.3203,-15.664 4.1211,0 3.3594,15.703 2.793,-23.711 3.8477,0 -4.3555,29.16 -3.7305,0 -3.9648,-17.324 -3.9453,17.324 -3.7305,0 -4.3555,-29.16"
       id="path4115" />
  </g>
</svg>
