<?xml version="1.0" encoding="UTF-8" standalone="no"?>
<!-- Created with Inkscape (http://www.inkscape.org/) -->

<svg
   xmlns:dc="http://purl.org/dc/elements/1.1/"
   xmlns:cc="http://creativecommons.org/ns#"
   xmlns:rdf="http://www.w3.org/1999/02/22-rdf-syntax-ns#"
   xmlns:svg="http://www.w3.org/2000/svg"
   xmlns="http://www.w3.org/2000/svg"
   xmlns:sodipodi="http://sodipodi.sourceforge.net/DTD/sodipodi-0.dtd"
   xmlns:inkscape="http://www.inkscape.org/namespaces/inkscape"
   id="svg2"
   viewBox="0 0 212.67 202.49"
   version="1.1"
   inkscape:version="0.48.4 r9939"
   width="100%"
   height="100%"
   sodipodi:docname="Vigilia-logo.svg">
  <defs
     id="defs12" />
  <sodipodi:namedview
     pagecolor="#ffffff"
     bordercolor="#666666"
     borderopacity="1"
     objecttolerance="10"
     gridtolerance="10"
     guidetolerance="10"
     inkscape:pageopacity="0"
     inkscape:pageshadow="2"
     inkscape:window-width="1247"
     inkscape:window-height="1388"
     id="namedview10"
     showgrid="false"
     inkscape:zoom="2.3309793"
     inkscape:cx="83.944884"
     inkscape:cy="61.295277"
     inkscape:window-x="65"
     inkscape:window-y="24"
     inkscape:window-maximized="0"
     inkscape:current-layer="svg2" />
  <metadata
     id="metadata7">
    <rdf:RDF>
      <cc:Work
         rdf:about="">
        <dc:format>image/svg+xml</dc:format>
        <dc:type
           rdf:resource="http://purl.org/dc/dcmitype/StillImage" />
        <dc:title />
      </cc:Work>
    </rdf:RDF>
  </metadata>
  <path
     style="fill:#3366cc;fill-rule:nonzero;stroke:#000000;stroke-width:5;stroke-linecap:round;stroke-linejoin:round;stroke-miterlimit:4;stroke-dasharray:none;fill-opacity:1"
     d="M 107.03125 12.5 C 78.317562 12.5 53.215494 27.930851 39.53125 50.9375 L 12.5 50.9375 L 85.78125 190 L 126.875 190 L 200.15625 50.9375 L 174.5625 50.9375 C 160.87447 27.918296 135.74949 12.5 107.03125 12.5 z M 106.34375 35.65625 C 125.95875 35.65625 141.875 49.521 141.875 66.625 C 141.875 74.373 138.5805 81.4438 133.1875 86.875 C 136.82118 89.990456 140.03244 93.725735 142.6875 97.9375 L 106.25 174.15625 L 69.96875 97.96875 C 72.626574 93.747793 75.828544 89.995991 79.46875 86.875 C 74.07575 81.444 70.84375 74.3732 70.84375 66.625 C 70.84375 49.521 86.72875 35.65625 106.34375 35.65625 z "
     transform="translate(0,-3.6182853e-6)"
     id="path3809" />
  <g
     id="text3772"
     style="font-size:299.6960144px;font-style:normal;font-variant:normal;font-weight:normal;font-stretch:normal;line-height:125%;letter-spacing:0px;word-spacing:0px;fill:#cb4b4b;stroke:#000000;stroke-width:5.85463095;stroke-miterlimit:4;stroke-dasharray:none;font-family:Monospace"
     transform="matrix(1.1460553,0,0,0.63640767,-130.22648,-145.9154)"
     font-weight="normal"
     font-size="299.6960144px"
     font-stretch="normal"
     line-height="125%"
     font-variant="normal"
     font-style="normal" />
</svg>
