<?xml version="1.0" encoding="UTF-8" standalone="no"?>
<!-- Created with Inkscape (http://www.inkscape.org/) -->

<svg
   xmlns:dc="http://purl.org/dc/elements/1.1/"
   xmlns:cc="http://creativecommons.org/ns#"
   xmlns:rdf="http://www.w3.org/1999/02/22-rdf-syntax-ns#"
   xmlns:svg="http://www.w3.org/2000/svg"
   xmlns="http://www.w3.org/2000/svg"
   xmlns:sodipodi="http://sodipodi.sourceforge.net/DTD/sodipodi-0.dtd"
   xmlns:inkscape="http://www.inkscape.org/namespaces/inkscape"
   width="262.01602mm"
   height="69.468765mm"
   viewBox="0 0 928.40323 246.14917"
   id="svg2"
   version="1.1"
   inkscape:version="0.91 r">
  <defs
     id="defs4" />
  <sodipodi:namedview
     id="base"
     pagecolor="#ffffff"
     bordercolor="#666666"
     borderopacity="1.0"
     inkscape:pageopacity="0.0"
     inkscape:pageshadow="2"
     inkscape:zoom="0.49497475"
     inkscape:cx="532.02285"
     inkscape:cy="-24.288722"
     inkscape:document-units="px"
     inkscape:current-layer="layer1"
     showgrid="false"
     fit-margin-top="5"
     fit-margin-left="5"
     fit-margin-right="5"
     fit-margin-bottom="5"
     inkscape:window-width="1247"
     inkscape:window-height="1388"
     inkscape:window-x="65"
     inkscape:window-y="24"
     inkscape:window-maximized="0" />
  <metadata
     id="metadata7">
    <rdf:RDF>
      <cc:Work
         rdf:about="">
        <dc:format>image/svg+xml</dc:format>
        <dc:type
           rdf:resource="http://purl.org/dc/dcmitype/StillImage" />
        <dc:title></dc:title>
      </cc:Work>
    </rdf:RDF>
  </metadata>
  <g
     inkscape:label="Layer 1"
     inkscape:groupmode="layer"
     id="layer1"
     transform="translate(124.2016,-55.001906)">
    <g
       transform="translate(-176.3339,-110.98409)"
       id="g4164">
      <g
         transform="translate(139.49188,-46.15942)"
         id="text3017"
         style="font-style:normal;font-variant:normal;font-weight:normal;font-stretch:normal;font-size:236.48498535px;line-height:125%;font-family:Monospace;letter-spacing:0px;word-spacing:0px;fill:#000000"
         font-weight="normal"
         font-size="236.48498535px"
         font-style="normal"
         font-stretch="normal"
         line-height="125%"
         font-variant="normal">
        <path
           id="path4077"
           d="m -7.1428,246.06 22.748,0 16.512,139.95 19.63,-92.608 24.364,0 19.861,92.839 16.512,-140.18 22.748,0 -25.75,172.4 -22.055,0 -23.441,-102.42 -23.325,102.42 -22.055,0 -25.75,-172.4"
           inkscape:connector-curvature="0" />
        <path
           id="path4079"
           d="m 216.18,353.45 -7.0437,0 c -12.394,6e-5 -21.747,2.194 -28.06,6.5818 -6.2355,4.311 -9.3532,10.777 -9.3532,19.399 -3e-5,7.7751 2.3479,13.818 7.0437,18.129 4.6958,4.3109 11.201,6.4664 19.515,6.4664 11.701,2e-5 20.9,-4.0415 27.598,-12.124 6.6972,-8.1599 10.084,-19.399 10.161,-33.718 l 0,-4.7343 -19.861,0 m 41.223,-8.7758 0,73.786 -21.362,0 0,-19.168 c -4.542,7.6981 -10.277,13.395 -17.205,17.09 -6.8514,3.6181 -15.204,5.4271 -25.057,5.4272 -13.164,-1e-5 -23.672,-3.6951 -31.524,-11.085 -7.8521,-7.4671 -11.778,-17.436 -11.778,-29.907 -1e-5,-14.395 4.8113,-25.327 14.434,-32.794 9.6995,-7.4671 23.902,-11.201 42.609,-11.201 l 28.521,0 0,-3.3487 c -0.0771,-10.315 -2.6944,-17.782 -7.852,-22.401 -5.1578,-4.6957 -13.395,-7.0436 -24.711,-7.0437 -7.2363,1.1e-4 -14.549,1.0394 -21.94,3.1177 -7.3902,2.0786 -14.588,5.1193 -21.593,9.1222 l 0,-21.247 c 7.852,-3.0021 15.358,-5.2346 22.517,-6.6973 7.2361,-1.5395 14.241,-2.3093 21.016,-2.3094 10.7,1.4e-4 19.822,1.5782 27.367,4.7343 7.621,3.1563 13.779,7.8906 18.475,14.203 2.9252,3.8492 5.0036,8.622 6.2354,14.318 1.2316,5.6197 1.8474,14.088 1.8475,25.404"
           inkscape:connector-curvature="0" />
        <path
           id="path4081"
           d="m 399.89,411.88 c -5.6967,3.3102 -11.586,5.7736 -17.667,7.3902 -6.0046,1.6936 -12.163,2.5404 -18.475,2.5404 -20.015,-1e-5 -35.681,-6.0045 -46.997,-18.014 -11.239,-12.009 -16.859,-28.637 -16.859,-49.884 -3e-5,-21.247 5.6196,-37.874 16.859,-49.884 11.316,-12.009 26.982,-18.013 46.997,-18.014 6.2354,1.4e-4 12.317,0.80843 18.244,2.4249 5.9274,1.6167 11.893,4.1186 17.898,7.5056 l 0,22.286 c -5.6197,-5.0036 -11.278,-8.6217 -16.974,-10.854 -5.6197,-2.2323 -12.009,-3.3486 -19.168,-3.3487 -13.318,1.1e-4 -23.556,4.311 -30.715,12.933 -7.1593,8.6219 -10.739,20.939 -10.739,36.951 -5e-5,15.935 3.5796,28.252 10.739,36.951 7.2361,8.6219 17.475,12.933 30.715,12.933 7.3901,2e-5 14.01,-1.1162 19.861,-3.3487 5.8504,-2.3094 11.278,-5.8505 16.281,-10.623 l 0,22.055"
           inkscape:connector-curvature="0" />
        <path
           id="path4083"
           d="m 541,338.32 0,80.137 -21.362,0 0,-80.137 c -1e-4,-11.624 -2.0401,-20.169 -6.12,-25.635 -4.0801,-5.4655 -10.469,-8.1983 -19.168,-8.1985 -9.9306,1.2e-4 -17.59,3.5412 -22.979,10.623 -5.3117,7.0054 -7.9676,17.09 -7.9675,30.253 l 0,73.093 -21.247,0 0,-129.33 21.247,0 0,19.399 c 3.772,-7.39 8.8912,-12.971 15.358,-16.743 6.4663,-3.8489 14.126,-5.7734 22.979,-5.7736 13.164,1.4e-4 22.979,4.3496 29.445,13.048 6.5432,8.622 9.8149,21.709 9.815,39.26"
           inkscape:connector-curvature="0" />
        <path
           id="path4085"
           d="m 690.3,348.48 0,10.392 -92.031,0 0,0.69283 c -3e-5,14.088 3.6566,24.98 10.97,32.678 7.3901,7.6981 17.782,11.547 31.177,11.547 6.7742,2e-5 13.856,-1.0777 21.247,-3.2332 7.39,-2.1554 15.281,-5.4271 23.672,-9.815 l 0,21.131 c -8.0831,3.3102 -15.897,5.7736 -23.441,7.3902 -7.4672,1.6936 -14.703,2.5404 -21.709,2.5404 -20.092,-10e-6 -35.796,-6.0045 -47.112,-18.014 -11.316,-12.086 -16.974,-28.714 -16.974,-49.884 -2e-5,-20.631 5.5426,-37.105 16.628,-49.422 11.0854,-12.317 25.865,-18.475 44.341,-18.475 16.474,1.4e-4 29.445,5.5812 38.914,16.743 9.5455,11.162 14.318,26.404 14.318,45.727 m -21.247,-6.2354 c -0.30803,-12.471 -3.2718,-21.939 -8.8913,-28.406 -5.5427,-6.5433 -13.549,-9.8149 -24.018,-9.815 -10.239,1.1e-4 -18.668,3.3873 -25.288,10.161 -6.6204,6.7744 -10.546,16.166 -11.778,28.175 l 69.976,-0.11547"
           inkscape:connector-curvature="0" />
        <path
           id="path4087"
           d="m 775.06,252.41 0,36.72 48.267,0 0,16.512 -48.267,0 0,70.206 c -7e-5,9.5456 1.809,16.204 5.4271,19.977 3.618,3.7721 9.9304,5.6581 18.937,5.6581 l 23.903,0 0,16.974 -25.981,0 c -15.935,0 -27.174,-3.1947 -33.718,-9.5841 -6.5434,-6.3894 -9.8151,-17.398 -9.815,-33.025 l 0,-70.206 -34.526,0 0,-16.512 34.526,0 0,-36.72 21.247,0"
           inkscape:connector-curvature="0" />
      </g>
      <rect
         id="rect3053"
         height="207.46001"
         width="207.46001"
         stroke-miterlimit="4"
         y="185.33058"
         x="71.476883"
         style="fill:#ffee00;fill-rule:nonzero;stroke:#000000;stroke-width:3.25609994;stroke-linecap:round;stroke-linejoin:round;stroke-miterlimit:4;stroke-dasharray:none" />
      <g
         id="flowRoot3055"
         style="font-style:normal;font-variant:normal;font-weight:normal;font-stretch:normal;font-size:40px;line-height:125%;font-family:Monospace;letter-spacing:0px;word-spacing:0px;fill:#000000"
         font-weight="normal"
         transform="matrix(7.6469172,0,0,5.947166,269.19083,1025.3475)"
         font-stretch="normal"
         line-height="125%"
         font-size="40px"
         font-variant="normal"
         font-style="normal">
        <path
           id="path4115"
           d="m -24.281,-138.35 3.8477,0 2.793,23.672 3.3203,-15.664 4.1211,0 3.3594,15.703 2.793,-23.711 3.8477,0 -4.3555,29.16 -3.7305,0 -3.9648,-17.324 -3.9453,17.324 -3.7305,0 -4.3555,-29.16"
           inkscape:connector-curvature="0" />
      </g>
    </g>
  </g>
</svg>
